<svg version="1.2" xmlns="http://www.w3.org/2000/svg" viewBox="0 0 1110 446" width="1110" height="446">
	<style>
		.s0 { fill: #a20025 } 
		.s1 { fill: #6b0019 } 
	</style>
	<path fill-rule="evenodd" class="s0" d="m32 0h1046c17.67 0 32 14.33 32 32v382c0 17.67-14.33 32-32 32h-1046c-17.67 0-32-14.33-32-32v-382c0-17.67 14.33-32 32-32z"/>
	<g>
		<path class="s1" d="m1016.33 0c-5.51 58.8-27.41 96.58-10.04 100.49 17.19 3.87 52.22-52.4 65.88-100.49z"/>
		<path class="s1" d="m0 147.47c20.73 30.58 61.13 57.54 118 85.3 48.29 23.58-93.13-128.53-118-182.47z"/>
		<path class="s1" d="m1110 212.78v-175.25c-16.78 52.89-48.76 131.93-109.11 198.12-63.03 69.14 2.4-55.89-34.58-44.48-36.98 11.4-96.63 132.77-226.03 166.64-129.4 33.87-281.36 22.31-341.28 12.72-59.92-9.58-53.14-16.27-30.16-20.67 23-4.4-103.79-18.42-244.08-85.48-52.47-25.09-93.48-57.14-124.76-84.55v266.17h1110v-26.62c-1.83-54.08-3.13-143.74-1.83-175.04 0.29-7.01 0.97-18.06 1.83-31.56z"/>
	</g>
</svg>