<svg version="1.2" xmlns="http://www.w3.org/2000/svg" viewBox="0 0 1440 885" width="1440" height="885">
	<defs>
		<linearGradient id="g1" x2="1" gradientUnits="userSpaceOnUse" gradientTransform="matrix(-658.841,781.174,-802.588,-676.901,965.645,309.616)">
			<stop offset="0" stop-color="#a20025" stop-opacity="1"/>
			<stop offset="1" stop-color="#6b0019" stop-opacity=".4"/>
		</linearGradient>
	</defs>
	<style>
		.s0 { fill: #6b0019 } 
		.s1 { fill: url(#g1) } 
	</style>
	<path class="s0" d="m1440 115.73c0-57.04-69.06-85.46-111.97-96.72-60.49-15.86-120.65-42.23-362.43 22.32-72.01 19.23-246.33 70.73-340.77 87.1-636.38 110.36-624.82 7.55-624.82 7.55v749.02h1439.99c0 0 0-615.61 0-769.27z"/>
	<path class="s1" d="m1440 115.73c0-57.04-69.06-85.46-111.97-96.72-60.49-15.86-120.65-42.23-362.43 22.32-72.01 19.23-246.33 70.73-340.77 87.1-636.38 110.36-624.82 7.55-624.82 7.55v749.02h1439.99c0 0 0-615.61 0-769.27z"/>
</svg>